<!-- Generated by IcoMoon.io -->
<svg version="1.1" xmlns="http://www.w3.org/2000/svg" width="1024" height="1024" viewBox="0 0 1024 1024">
<title></title>
<g id="icomoon-ignore">
</g>
<path fill="#1f8acb" d="M192 320c35.328 0 64 28.672 64 64v448c0 35.328-28.672 64-64 64h-128c-35.285 0-64-28.672-64-64v-448c0-35.328 28.715-64 64-64zM576 128c35.328 0 64 28.672 64 64v640c0 35.328-28.672 64-64 64h-128c-35.285 0-64-28.672-64-64v-640c0-35.328 28.715-64 64-64zM960 448c35.328 0 64 28.672 64 64v320c0 35.328-28.672 64-64 64h-128c-35.328 0-64-28.672-64-64v-320c0-35.328 28.672-64 64-64z"></path>
</svg>
