<!-- Generated by IcoMoon.io -->
<svg version="1.1" xmlns="http://www.w3.org/2000/svg" width="1024" height="1024" viewBox="0 0 1024 1024">
<title></title>
<g id="icomoon-ignore">
</g>
<path fill="#f89f1b" d="M687.019 765.013l-115.072 111.232c-19.883 19.925-47.403 28.245-77.781 28.245s-57.899-8.32-77.824-28.245l-184.832-186.155c-19.925-19.925-29.952-49.067-29.952-79.488s10.027-57.899 29.952-77.824l184.277-186.88c19.925-19.925 48-27.52 78.379-27.52s57.899 8.32 77.781 28.245l115.072 111.189c21.931 21.973 58.24 21.205 81.067-1.621 22.827-22.869 23.595-59.179 1.664-81.109l-111.317-112.469c-27.89-27.58-63.294-47.616-102.867-56.763l-1.453-0.283 105.259-106.795c22.016-21.931 21.248-58.283-1.579-81.109s-59.179-23.552-81.152-1.621l-430.933 430.976c-41.856 41.899-63.744 99.712-63.744 163.627s21.888 123.52 63.744 165.333l185.472 186.069c41.856 41.771 99.712 61.952 163.584 61.952s121.728-21.845 163.627-63.744l111.317-112.512c21.931-21.931 21.163-58.24-1.664-81.067s-59.136-23.595-81.024-1.664zM887.936 555.093h-432.853c-29.952 0-54.187 25.771-54.187 57.429s24.235 57.429 54.187 57.429h432.853c29.909 0 54.187-25.771 54.187-57.429s-24.277-57.429-54.187-57.429z"></path>
</svg>
